<svg xmlns="http://www.w3.org/2000/svg" width="320" height="320" viewBox="0 0 84.667 84.667"><path d="M0 0h84.667v84.667H0z" style="paint-order:stroke fill markers"/><path fill="none" stroke="#fff" stroke-linecap="round" stroke-width="4.233" d="M25.226 21.167h118.88a14.61 14.61 0 0 1 14.643 14.643v97.714a14.61 14.61 0 0 1-14.643 14.643H25.226a14.61 14.61 0 0 1-14.643-14.643V35.81a14.61 14.61 0 0 1 14.643-14.643z" style="font-variation-settings:&quot;wght&quot;600" transform="translate(-1.016 -1.016)scale(.512)"/><path fill="#fff" d="M20.685 58.155V26.51H39.11v3.858H24.933v9.407h12.658v3.728H24.933v10.794H39.11v3.858zm35.156.435q-4.378 0-6.979-2.427-2.557-2.47-2.557-6.762V35.225q0-4.248 2.557-6.676 2.601-2.47 6.98-2.47 4.334 0 6.892 2.47 2.6 2.471 2.6 6.676h-4.29q0-2.557-1.388-3.944t-3.815-1.388q-2.47 0-3.858 1.388t-1.387 3.944v14.176q0 2.6 1.387 3.988t3.858 1.387q2.428 0 3.815-1.387t1.387-3.988h4.292q0 4.248-2.601 6.719-2.558 2.47-6.893 2.47" aria-label="EC" style="font-variant-ligatures:none"/></svg>
